<svg id="visual" viewBox="0 0 900 900" width="900" height="900" xmlns="http://www.w3.org/2000/svg" xmlns:xlink="http://www.w3.org/1999/xlink" version="1.1"><g stroke-width="1" stroke-linejoin="bevel"><path d="M448.1 439.9L456.9 427.1L412.1 383.1Z" fill="#3b1f60" stroke="#3b1f60"></path><path d="M456.9 427.1L439.1 342.3L412.1 383.1Z" fill="#4d2e81" stroke="#4d2e81"></path><path d="M456.9 427.1L460.9 336.3L439.1 342.3Z" fill="#442670" stroke="#442670"></path><path d="M460.9 336.3L440.9 293.5L439.1 342.3Z" fill="#3b1f60" stroke="#3b1f60"></path><path d="M439.1 342.3L303.3 341.3L412.1 383.1Z" fill="#4d2e81" stroke="#4d2e81"></path><path d="M366.3 558.7L420.1 544.7L448.1 439.9Z" fill="#492a78" stroke="#492a78"></path><path d="M448.1 439.9L533.9 514.9L456.9 427.1Z" fill="#492a78" stroke="#492a78"></path><path d="M303.3 341.3L288.3 425.1L412.1 383.1Z" fill="#462874" stroke="#462874"></path><path d="M412.1 383.1L288.3 425.1L448.1 439.9Z" fill="#4b2c7d" stroke="#4b2c7d"></path><path d="M440.9 293.5L303.3 341.3L439.1 342.3Z" fill="#4d2e81" stroke="#4d2e81"></path><path d="M420.1 544.7L533.9 514.9L448.1 439.9Z" fill="#4b2c7d" stroke="#4b2c7d"></path><path d="M456.9 427.1L568.7 370.3L460.9 336.3Z" fill="#3b1f60" stroke="#3b1f60"></path><path d="M603.7 414.1L568.7 370.3L456.9 427.1Z" fill="#3b1f60" stroke="#3b1f60"></path><path d="M460.9 336.3L526.9 200.6L440.9 293.5Z" fill="#492a78" stroke="#492a78"></path><path d="M306.3 535.9L366.3 558.7L448.1 439.9Z" fill="#3e2064" stroke="#3e2064"></path><path d="M455.1 682.5L479.9 570.7L420.1 544.7Z" fill="#391d5c" stroke="#391d5c"></path><path d="M420.1 544.7L479.9 570.7L533.9 514.9Z" fill="#391d5c" stroke="#391d5c"></path><path d="M288.3 425.1L306.3 535.9L448.1 439.9Z" fill="#402268" stroke="#402268"></path><path d="M227.5 365.3L253.5 442.1L288.3 425.1Z" fill="#442670" stroke="#442670"></path><path d="M288.3 425.1L279.5 517.9L306.3 535.9Z" fill="#371b58" stroke="#371b58"></path><path d="M253.5 442.1L279.5 517.9L288.3 425.1Z" fill="#402268" stroke="#402268"></path><path d="M533.9 514.9L603.7 414.1L456.9 427.1Z" fill="#42246c" stroke="#42246c"></path><path d="M287.3 238.5L274.5 293.5L303.3 341.3Z" fill="#3e2064" stroke="#3e2064"></path><path d="M303.3 341.3L227.5 365.3L288.3 425.1Z" fill="#462874" stroke="#462874"></path><path d="M551.7 610.7L584.7 525.9L533.9 514.9Z" fill="#442670" stroke="#442670"></path><path d="M533.9 514.9L613.5 501.9L603.7 414.1Z" fill="#3e2064" stroke="#3e2064"></path><path d="M253.5 442.1L262.5 528.7L279.5 517.9Z" fill="#462874" stroke="#462874"></path><path d="M279.5 517.9L262.5 528.7L306.3 535.9Z" fill="#492a78" stroke="#492a78"></path><path d="M306.3 535.9L329.3 626.5L366.3 558.7Z" fill="#4b2c7d" stroke="#4b2c7d"></path><path d="M274.5 293.5L227.5 365.3L303.3 341.3Z" fill="#42246c" stroke="#42246c"></path><path d="M253.5 442.1L166.6 459.9L262.5 528.7Z" fill="#492a78" stroke="#492a78"></path><path d="M584.7 525.9L613.5 501.9L533.9 514.9Z" fill="#371b58" stroke="#371b58"></path><path d="M613.5 501.9L636.5 381.1L603.7 414.1Z" fill="#371b58" stroke="#371b58"></path><path d="M603.7 414.1L636.5 381.1L568.7 370.3Z" fill="#3b1f60" stroke="#3b1f60"></path><path d="M526.9 200.6L402.1 200.5L440.9 293.5Z" fill="#442670" stroke="#442670"></path><path d="M526.9 200.6L460.9 336.3L568.7 370.3Z" fill="#442670" stroke="#442670"></path><path d="M440.9 293.5L287.3 238.5L303.3 341.3Z" fill="#4b2c7d" stroke="#4b2c7d"></path><path d="M479.9 570.7L532.7 607.5L533.9 514.9Z" fill="#4d2e81" stroke="#4d2e81"></path><path d="M584.7 525.9L691.5 532.7L613.5 501.9Z" fill="#462874" stroke="#462874"></path><path d="M455.1 682.5L532.7 607.5L479.9 570.7Z" fill="#42246c" stroke="#42246c"></path><path d="M455.1 682.5L420.1 544.7L375.1 685.4Z" fill="#371b58" stroke="#371b58"></path><path d="M402.1 200.5L287.3 238.5L440.9 293.5Z" fill="#371b58" stroke="#371b58"></path><path d="M274.5 293.5L196.6 290.3L227.5 365.3Z" fill="#3e2064" stroke="#3e2064"></path><path d="M262.5 528.7L329.3 626.5L306.3 535.9Z" fill="#492a78" stroke="#492a78"></path><path d="M529.9 688.5L551.7 610.7L532.7 607.5Z" fill="#391d5c" stroke="#391d5c"></path><path d="M532.7 607.5L551.7 610.7L533.9 514.9Z" fill="#4b2c7d" stroke="#4b2c7d"></path><path d="M605.7 212.6L526.9 200.6L568.7 370.3Z" fill="#371b58" stroke="#371b58"></path><path d="M701.4 375.1L650.5 310.3L636.5 381.1Z" fill="#4d2e81" stroke="#4d2e81"></path><path d="M636.5 381.1L650.5 310.3L568.7 370.3Z" fill="#3e2064" stroke="#3e2064"></path><path d="M287.3 238.5L196.6 290.3L274.5 293.5Z" fill="#4b2c7d" stroke="#4b2c7d"></path><path d="M149.6 419.1L166.6 459.9L253.5 442.1Z" fill="#3b1f60" stroke="#3b1f60"></path><path d="M149.6 419.1L253.5 442.1L227.5 365.3Z" fill="#391d5c" stroke="#391d5c"></path><path d="M262.5 528.7L214.5 656.5L329.3 626.5Z" fill="#402268" stroke="#402268"></path><path d="M439.1 123.8L406.1 146.6L402.1 200.5Z" fill="#3b1f60" stroke="#3b1f60"></path><path d="M402.1 200.5L291.5 177.6L287.3 238.5Z" fill="#391d5c" stroke="#391d5c"></path><path d="M287.3 238.5L149.6 219.5L196.6 290.3Z" fill="#4d2e81" stroke="#4d2e81"></path><path d="M375.1 685.4L420.1 544.7L366.3 558.7Z" fill="#42246c" stroke="#42246c"></path><path d="M650.5 310.3L605.7 212.6L568.7 370.3Z" fill="#492a78" stroke="#492a78"></path><path d="M526.9 200.6L439.1 123.8L402.1 200.5Z" fill="#492a78" stroke="#492a78"></path><path d="M406.1 146.6L291.5 177.6L402.1 200.5Z" fill="#3e2064" stroke="#3e2064"></path><path d="M650.5 310.3L610.7 212.5L605.7 212.6Z" fill="#402268" stroke="#402268"></path><path d="M476.9 106.8L439.1 123.8L526.9 200.6Z" fill="#42246c" stroke="#42246c"></path><path d="M350.3 743.4L375.1 685.4L329.3 626.5Z" fill="#3b1f60" stroke="#3b1f60"></path><path d="M329.3 626.5L375.1 685.4L366.3 558.7Z" fill="#492a78" stroke="#492a78"></path><path d="M196.6 290.3L149.6 419.1L227.5 365.3Z" fill="#391d5c" stroke="#391d5c"></path><path d="M613.5 501.9L701.4 375.1L636.5 381.1Z" fill="#3b1f60" stroke="#3b1f60"></path><path d="M650.5 310.3L648.5 213.5L610.7 212.5Z" fill="#42246c" stroke="#42246c"></path><path d="M714.4 523.9L701.4 375.1L613.5 501.9Z" fill="#42246c" stroke="#42246c"></path><path d="M388.1 812.2L474.9 693.4L455.1 682.5Z" fill="#462874" stroke="#462874"></path><path d="M455.1 682.5L474.9 693.4L532.7 607.5Z" fill="#42246c" stroke="#42246c"></path><path d="M476.9 106.8L526.9 200.6L571.7 103.8Z" fill="#402268" stroke="#402268"></path><path d="M406.1 146.6L279.3 158.6L291.5 177.6Z" fill="#3b1f60" stroke="#3b1f60"></path><path d="M693.4 596.7L584.7 525.9L551.7 610.7Z" fill="#42246c" stroke="#42246c"></path><path d="M693.4 596.7L691.5 532.7L584.7 525.9Z" fill="#371b58" stroke="#371b58"></path><path d="M474.9 693.4L529.9 688.5L532.7 607.5Z" fill="#492a78" stroke="#492a78"></path><path d="M291.5 177.6L279.3 158.6L287.3 238.5Z" fill="#371b58" stroke="#371b58"></path><path d="M278.3 36.8L279.3 158.6L406.1 146.6Z" fill="#462874" stroke="#462874"></path><path d="M841.2 324.3L705.4 321.3L701.4 375.1Z" fill="#3b1f60" stroke="#3b1f60"></path><path d="M701.4 375.1L705.4 321.3L650.5 310.3Z" fill="#3e2064" stroke="#3e2064"></path><path d="M714.4 207.5L648.5 213.5L650.5 310.3Z" fill="#462874" stroke="#462874"></path><path d="M571.7 103.8L526.9 200.6L605.7 212.6Z" fill="#391d5c" stroke="#391d5c"></path><path d="M693.4 596.7L714.4 523.9L691.5 532.7Z" fill="#442670" stroke="#442670"></path><path d="M691.5 532.7L714.4 523.9L613.5 501.9Z" fill="#371b58" stroke="#371b58"></path><path d="M635.5 145.6L605.7 212.6L610.7 212.5Z" fill="#391d5c" stroke="#391d5c"></path><path d="M355.3 0L278.3 36.8L406.1 146.6Z" fill="#462874" stroke="#462874"></path><path d="M634.5 746.4L576.7 693.4L573.7 821.2Z" fill="#391d5c" stroke="#391d5c"></path><path d="M529.9 688.5L576.7 693.4L551.7 610.7Z" fill="#4d2e81" stroke="#4d2e81"></path><path d="M148.6 606.7L262.5 528.7L166.6 459.9Z" fill="#371b58" stroke="#371b58"></path><path d="M148.6 606.7L214.5 656.5L262.5 528.7Z" fill="#4b2c7d" stroke="#4b2c7d"></path><path d="M576.7 693.4L693.4 596.7L551.7 610.7Z" fill="#3b1f60" stroke="#3b1f60"></path><path d="M97.8 314.3L88.8 419.1L149.6 419.1Z" fill="#42246c" stroke="#42246c"></path><path d="M149.6 419.1L88.8 419.1L166.6 459.9Z" fill="#4d2e81" stroke="#4d2e81"></path><path d="M97.8 314.3L149.6 419.1L196.6 290.3Z" fill="#4d2e81" stroke="#4d2e81"></path><path d="M88.8 549.7L148.6 606.7L166.6 459.9Z" fill="#42246c" stroke="#42246c"></path><path d="M229.5 723.4L350.3 743.4L329.3 626.5Z" fill="#492a78" stroke="#492a78"></path><path d="M375.1 685.4L350.3 743.4L455.1 682.5Z" fill="#492a78" stroke="#492a78"></path><path d="M573.7 821.2L576.7 693.4L529.9 688.5Z" fill="#3b1f60" stroke="#3b1f60"></path><path d="M279.3 158.6L149.6 219.5L287.3 238.5Z" fill="#371b58" stroke="#371b58"></path><path d="M714.4 207.5L635.5 145.6L648.5 213.5Z" fill="#462874" stroke="#462874"></path><path d="M648.5 213.5L635.5 145.6L610.7 212.5Z" fill="#391d5c" stroke="#391d5c"></path><path d="M114.8 259.5L97.8 314.3L196.6 290.3Z" fill="#462874" stroke="#462874"></path><path d="M635.5 145.6L571.7 103.8L605.7 212.6Z" fill="#391d5c" stroke="#391d5c"></path><path d="M149.6 219.5L114.8 259.5L196.6 290.3Z" fill="#462874" stroke="#462874"></path><path d="M279.3 158.6L142.6 207.6L149.6 219.5Z" fill="#442670" stroke="#442670"></path><path d="M149.6 219.5L142.6 207.6L114.8 259.5Z" fill="#391d5c" stroke="#391d5c"></path><path d="M705.4 321.3L714.4 207.5L650.5 310.3Z" fill="#492a78" stroke="#492a78"></path><path d="M825.2 220.5L714.4 207.5L705.4 321.3Z" fill="#371b58" stroke="#371b58"></path><path d="M88.8 419.1L88.8 549.7L166.6 459.9Z" fill="#3b1f60" stroke="#3b1f60"></path><path d="M158.6 678.5L229.5 723.4L214.5 656.5Z" fill="#442670" stroke="#442670"></path><path d="M214.5 656.5L229.5 723.4L329.3 626.5Z" fill="#3b1f60" stroke="#3b1f60"></path><path d="M158.6 678.5L214.5 656.5L148.6 606.7Z" fill="#4d2e81" stroke="#4d2e81"></path><path d="M634.5 746.4L702.5 666.5L576.7 693.4Z" fill="#4d2e81" stroke="#4d2e81"></path><path d="M576.7 693.4L702.5 666.5L693.4 596.7Z" fill="#3b1f60" stroke="#3b1f60"></path><path d="M693.4 596.7L740.4 622.5L714.4 523.9Z" fill="#42246c" stroke="#42246c"></path><path d="M124.8 682.5L158.6 678.5L148.6 606.7Z" fill="#462874" stroke="#462874"></path><path d="M702.5 666.5L740.4 622.5L693.4 596.7Z" fill="#391d5c" stroke="#391d5c"></path><path d="M714.4 523.9L806.2 449.1L701.4 375.1Z" fill="#4d2e81" stroke="#4d2e81"></path><path d="M823.2 482.9L806.2 449.1L714.4 523.9Z" fill="#402268" stroke="#402268"></path><path d="M702.5 666.5L720.4 715.4L740.4 622.5Z" fill="#371b58" stroke="#371b58"></path><path d="M573.7 821.2L529.9 688.5L474.9 693.4Z" fill="#4b2c7d" stroke="#4b2c7d"></path><path d="M331.3 817.2L388.1 812.2L350.3 743.4Z" fill="#4b2c7d" stroke="#4b2c7d"></path><path d="M350.3 743.4L388.1 812.2L455.1 682.5Z" fill="#462874" stroke="#462874"></path><path d="M88.8 419.1L35.8 514.9L88.8 549.7Z" fill="#462874" stroke="#462874"></path><path d="M88.8 549.7L124.8 682.5L148.6 606.7Z" fill="#391d5c" stroke="#391d5c"></path><path d="M0 442.9L35.8 514.9L88.8 419.1Z" fill="#492a78" stroke="#492a78"></path><path d="M158.6 678.5L177.6 734.4L229.5 723.4Z" fill="#402268" stroke="#402268"></path><path d="M229.5 723.4L331.3 817.2L350.3 743.4Z" fill="#4b2c7d" stroke="#4b2c7d"></path><path d="M0 673.5L124.8 682.5L88.8 549.7Z" fill="#492a78" stroke="#492a78"></path><path d="M846.2 544.7L823.2 482.9L714.4 523.9Z" fill="#402268" stroke="#402268"></path><path d="M784.2 115.6L711.4 122.6L714.4 207.5Z" fill="#3b1f60" stroke="#3b1f60"></path><path d="M129.8 704.4L177.6 734.4L158.6 678.5Z" fill="#492a78" stroke="#492a78"></path><path d="M711.4 122.6L610.5 54.8L635.5 145.6Z" fill="#492a78" stroke="#492a78"></path><path d="M635.5 145.6L610.5 54.8L571.7 103.8Z" fill="#391d5c" stroke="#391d5c"></path><path d="M524.9 0L442.1 0L476.9 106.8Z" fill="#3e2064" stroke="#3e2064"></path><path d="M355.3 0L406.1 146.6L439.1 123.8Z" fill="#42246c" stroke="#42246c"></path><path d="M442.1 0L439.1 123.8L476.9 106.8Z" fill="#4b2c7d" stroke="#4b2c7d"></path><path d="M279.3 158.6L256.5 45.8L142.6 207.6Z" fill="#492a78" stroke="#492a78"></path><path d="M278.3 36.8L256.5 45.8L279.3 158.6Z" fill="#391d5c" stroke="#391d5c"></path><path d="M714.4 207.5L711.4 122.6L635.5 145.6Z" fill="#42246c" stroke="#42246c"></path><path d="M841.2 324.3L701.4 375.1L806.2 449.1Z" fill="#371b58" stroke="#371b58"></path><path d="M222.5 822.2L331.3 817.2L229.5 723.4Z" fill="#492a78" stroke="#492a78"></path><path d="M124.8 682.5L129.8 704.4L158.6 678.5Z" fill="#371b58" stroke="#371b58"></path><path d="M0 722.4L129.8 704.4L124.8 682.5Z" fill="#4d2e81" stroke="#4d2e81"></path><path d="M524.9 0L476.9 106.8L571.7 103.8Z" fill="#42246c" stroke="#42246c"></path><path d="M442.1 0L355.3 0L439.1 123.8Z" fill="#3b1f60" stroke="#3b1f60"></path><path d="M278.3 36.8L287.5 0L256.5 45.8Z" fill="#391d5c" stroke="#391d5c"></path><path d="M634.5 746.4L720.4 715.4L702.5 666.5Z" fill="#442670" stroke="#442670"></path><path d="M740.4 622.5L846.2 544.7L714.4 523.9Z" fill="#462874" stroke="#462874"></path><path d="M900 371.3L841.2 324.3L806.2 449.1Z" fill="#4d2e81" stroke="#4d2e81"></path><path d="M97.8 314.3L0 440.1L88.8 419.1Z" fill="#3b1f60" stroke="#3b1f60"></path><path d="M0 276.3L0 440.1L97.8 314.3Z" fill="#42246c" stroke="#42246c"></path><path d="M0 276.3L97.8 314.3L114.8 259.5Z" fill="#371b58" stroke="#371b58"></path><path d="M0 440.1L0 442.9L88.8 419.1Z" fill="#391d5c" stroke="#391d5c"></path><path d="M35.8 514.9L0 544.7L88.8 549.7Z" fill="#402268" stroke="#402268"></path><path d="M537.7 0L524.9 0L571.7 103.8Z" fill="#442670" stroke="#442670"></path><path d="M610.5 54.8L537.7 0L571.7 103.8Z" fill="#492a78" stroke="#492a78"></path><path d="M621.5 0L537.7 0L610.5 54.8Z" fill="#442670" stroke="#442670"></path><path d="M537.9 854.2L474.9 693.4L388.1 812.2Z" fill="#402268" stroke="#402268"></path><path d="M537.9 854.2L573.7 821.2L474.9 693.4Z" fill="#4d2e81" stroke="#4d2e81"></path><path d="M634.5 746.4L675.5 807.2L720.4 715.4Z" fill="#492a78" stroke="#492a78"></path><path d="M720.4 715.4L800.2 635.5L740.4 622.5Z" fill="#3b1f60" stroke="#3b1f60"></path><path d="M355.3 0L287.5 0L278.3 36.8Z" fill="#4d2e81" stroke="#4d2e81"></path><path d="M0 263.5L114.8 259.5L0 153.6Z" fill="#391d5c" stroke="#391d5c"></path><path d="M800.2 635.5L846.2 544.7L740.4 622.5Z" fill="#4d2e81" stroke="#4d2e81"></path><path d="M823.2 482.9L900 414.1L806.2 449.1Z" fill="#371b58" stroke="#371b58"></path><path d="M0 442.9L0 544.7L35.8 514.9Z" fill="#371b58" stroke="#371b58"></path><path d="M841.2 324.3L825.2 220.5L705.4 321.3Z" fill="#492a78" stroke="#492a78"></path><path d="M114.8 259.5L142.6 207.6L52.8 124.6Z" fill="#4d2e81" stroke="#4d2e81"></path><path d="M0 263.5L0 276.3L114.8 259.5Z" fill="#371b58" stroke="#371b58"></path><path d="M52.8 124.6L142.6 207.6L92.8 77.8Z" fill="#4d2e81" stroke="#4d2e81"></path><path d="M487.9 900L537.9 854.2L388.1 812.2Z" fill="#402268" stroke="#402268"></path><path d="M573.7 821.2L675.5 807.2L634.5 746.4Z" fill="#402268" stroke="#402268"></path><path d="M177.6 734.4L222.5 822.2L229.5 723.4Z" fill="#3e2064" stroke="#3e2064"></path><path d="M350.3 900L412.1 900L388.1 812.2Z" fill="#371b58" stroke="#371b58"></path><path d="M212.6 824.2L222.5 822.2L177.6 734.4Z" fill="#442670" stroke="#442670"></path><path d="M212.6 824.2L177.6 734.4L55.8 779.2Z" fill="#4b2c7d" stroke="#4b2c7d"></path><path d="M702.4 0L621.5 0L610.5 54.8Z" fill="#4b2c7d" stroke="#4b2c7d"></path><path d="M702.4 0L610.5 54.8L711.4 122.6Z" fill="#402268" stroke="#402268"></path><path d="M55.8 779.2L177.6 734.4L129.8 704.4Z" fill="#3b1f60" stroke="#3b1f60"></path><path d="M350.3 900L388.1 812.2L331.3 817.2Z" fill="#462874" stroke="#462874"></path><path d="M720.4 715.4L776.2 738.4L800.2 635.5Z" fill="#492a78" stroke="#492a78"></path><path d="M688.4 865.2L675.5 807.2L624.5 900Z" fill="#462874" stroke="#462874"></path><path d="M825.2 220.5L784.2 115.6L714.4 207.5Z" fill="#442670" stroke="#442670"></path><path d="M92.8 77.8L142.6 207.6L256.5 45.8Z" fill="#442670" stroke="#442670"></path><path d="M119.6 36.8L92.8 77.8L256.5 45.8Z" fill="#402268" stroke="#402268"></path><path d="M841.2 324.3L900 260.5L825.2 220.5Z" fill="#3b1f60" stroke="#3b1f60"></path><path d="M900 491.9L900 414.1L823.2 482.9Z" fill="#3e2064" stroke="#3e2064"></path><path d="M900 414.1L900 371.3L806.2 449.1Z" fill="#402268" stroke="#402268"></path><path d="M860.2 56.8L783.4 74.8L784.2 115.6Z" fill="#391d5c" stroke="#391d5c"></path><path d="M675.5 807.2L776.2 738.4L720.4 715.4Z" fill="#402268" stroke="#402268"></path><path d="M900 573.7L900 491.9L846.2 544.7Z" fill="#391d5c" stroke="#391d5c"></path><path d="M846.2 544.7L900 491.9L823.2 482.9Z" fill="#3b1f60" stroke="#3b1f60"></path><path d="M900 573.7L846.2 544.7L800.2 635.5Z" fill="#3e2064" stroke="#3e2064"></path><path d="M350.3 900L331.3 817.2L259.5 900Z" fill="#3b1f60" stroke="#3b1f60"></path><path d="M624.5 900L675.5 807.2L573.7 821.2Z" fill="#3e2064" stroke="#3e2064"></path><path d="M153.6 0L119.6 36.8L256.5 45.8Z" fill="#3e2064" stroke="#3e2064"></path><path d="M0 77.8L0 153.6L52.8 124.6Z" fill="#42246c" stroke="#42246c"></path><path d="M412.1 900L487.9 900L388.1 812.2Z" fill="#42246c" stroke="#42246c"></path><path d="M259.5 900L331.3 817.2L222.5 822.2Z" fill="#462874" stroke="#462874"></path><path d="M900 133.6L784.2 115.6L825.2 220.5Z" fill="#371b58" stroke="#371b58"></path><path d="M784.2 115.6L783.4 74.8L711.4 122.6Z" fill="#42246c" stroke="#42246c"></path><path d="M487.9 900L522.7 900L537.9 854.2Z" fill="#3e2064" stroke="#3e2064"></path><path d="M287.5 0L153.6 0L256.5 45.8Z" fill="#462874" stroke="#462874"></path><path d="M0 544.7L0 673.5L88.8 549.7Z" fill="#3e2064" stroke="#3e2064"></path><path d="M783.4 74.8L702.4 0L711.4 122.6Z" fill="#4d2e81" stroke="#4d2e81"></path><path d="M105.8 0L92.8 77.8L119.6 36.8Z" fill="#4d2e81" stroke="#4d2e81"></path><path d="M0 77.8L52.8 124.6L92.8 77.8Z" fill="#3b1f60" stroke="#3b1f60"></path><path d="M52.8 124.6L0 153.6L114.8 259.5Z" fill="#3b1f60" stroke="#3b1f60"></path><path d="M900 371.3L900 260.5L841.2 324.3Z" fill="#4d2e81" stroke="#4d2e81"></path><path d="M900 665.5L900 573.7L800.2 635.5Z" fill="#391d5c" stroke="#391d5c"></path><path d="M212.6 824.2L259.5 900L222.5 822.2Z" fill="#371b58" stroke="#371b58"></path><path d="M151.6 900L259.5 900L212.6 824.2Z" fill="#42246c" stroke="#42246c"></path><path d="M0 722.4L55.8 779.2L129.8 704.4Z" fill="#371b58" stroke="#371b58"></path><path d="M675.5 807.2L793.2 812.2L776.2 738.4Z" fill="#442670" stroke="#442670"></path><path d="M776.2 738.4L900 665.5L800.2 635.5Z" fill="#4b2c7d" stroke="#4b2c7d"></path><path d="M624.5 900L573.7 821.2L537.9 854.2Z" fill="#3b1f60" stroke="#3b1f60"></path><path d="M153.6 0L105.8 0L119.6 36.8Z" fill="#4b2c7d" stroke="#4b2c7d"></path><path d="M522.7 900L624.5 900L537.9 854.2Z" fill="#42246c" stroke="#42246c"></path><path d="M0 673.5L0 722.4L124.8 682.5Z" fill="#402268" stroke="#402268"></path><path d="M900 736.4L900 665.5L776.2 738.4Z" fill="#42246c" stroke="#42246c"></path><path d="M784.4 900L793.2 812.2L688.4 865.2Z" fill="#492a78" stroke="#492a78"></path><path d="M688.4 865.2L793.2 812.2L675.5 807.2Z" fill="#402268" stroke="#402268"></path><path d="M0 0L0 77.8L92.8 77.8Z" fill="#462874" stroke="#462874"></path><path d="M900 260.5L900 133.6L825.2 220.5Z" fill="#3b1f60" stroke="#3b1f60"></path><path d="M783.4 74.8L799.2 0L702.4 0Z" fill="#3e2064" stroke="#3e2064"></path><path d="M75.8 900L151.6 900L55.8 779.2Z" fill="#371b58" stroke="#371b58"></path><path d="M55.8 779.2L151.6 900L212.6 824.2Z" fill="#442670" stroke="#442670"></path><path d="M860.2 56.8L799.2 0L783.4 74.8Z" fill="#442670" stroke="#442670"></path><path d="M900 133.6L860.2 56.8L784.2 115.6Z" fill="#391d5c" stroke="#391d5c"></path><path d="M0 722.4L0 790.2L55.8 779.2Z" fill="#462874" stroke="#462874"></path><path d="M793.2 812.2L900 736.4L776.2 738.4Z" fill="#462874" stroke="#462874"></path><path d="M105.8 0L0 0L92.8 77.8Z" fill="#442670" stroke="#442670"></path><path d="M0 790.2L75.8 900L55.8 779.2Z" fill="#3e2064" stroke="#3e2064"></path><path d="M900 133.6L900 42.8L860.2 56.8Z" fill="#492a78" stroke="#492a78"></path><path d="M860.2 56.8L900 0L799.2 0Z" fill="#3e2064" stroke="#3e2064"></path><path d="M624.5 900L784.4 900L688.4 865.2Z" fill="#42246c" stroke="#42246c"></path><path d="M793.2 812.2L900 795.2L900 736.4Z" fill="#371b58" stroke="#371b58"></path><path d="M834.2 900L900 795.2L793.2 812.2Z" fill="#402268" stroke="#402268"></path><path d="M900 42.8L900 0L860.2 56.8Z" fill="#442670" stroke="#442670"></path><path d="M784.4 900L834.2 900L793.2 812.2Z" fill="#462874" stroke="#462874"></path><path d="M0 790.2L0 900L75.8 900Z" fill="#462874" stroke="#462874"></path><path d="M834.2 900L900 900L900 795.2Z" fill="#402268" stroke="#402268"></path></g></svg>